<?xml version="1.0" standalone="no"?>
<!DOCTYPE svg PUBLIC "-//W3C//DTD SVG 20010904//EN"
 "http://www.w3.org/TR/2001/REC-SVG-20010904/DTD/svg10.dtd">
<svg version="1.0" xmlns="http://www.w3.org/2000/svg"
 width="300.000000pt" height="185.000000pt" viewBox="0 0 300.000000 185.000000"
 preserveAspectRatio="xMidYMid meet">
<metadata>
Created by Zaid Izzah Nurbaain - logo created at July 2025
</metadata>
<g transform="translate(0.000000,185.000000) scale(0.100000,-0.100000)"
fill="#000000" stroke="none">
<path d="M1665 1680 l-89 -110 -733 0 -733 0 0 -190 0 -191 53 -24 c51 -24 57
-25 316 -25 l263 0 -326 -252 -327 -253 3 -124 3 -124 65 -22 65 -22 1095 8
c602 4 1200 8 1328 8 l233 1 -5 132 c-2 73 -5 331 -5 573 l-1 440 -48 19 c-26
11 -62 26 -80 33 -27 11 -108 14 -381 13 l-347 0 -73 91 c-40 51 -78 100 -84
111 -9 13 -24 18 -57 18 l-45 0 -90 -110z m156 45 c0 -5 -7 -12 -16 -13 -23
-5 -47 6 -40 19 8 13 56 8 56 -6z m-84 -41 c10 -10 30 -14 55 -13 35 3 43 -1
78 -41 22 -25 39 -47 40 -50 0 -3 -67 -4 -150 -2 l-150 3 48 59 c26 33 51 60
55 60 5 0 15 -7 24 -16z m174 -13 c3 -3 22 -27 43 -53 36 -47 37 -48 14 -48
-17 0 -39 17 -71 54 -26 30 -47 57 -47 61 0 7 53 -5 61 -14z m-388 -121 c26 0
23 -4 -46 -67 -113 -103 -677 -632 -800 -751 -66 -63 -105 -108 -100 -113 6
-6 212 -8 496 -7 l487 3 0 -102 0 -103 -725 0 -725 0 0 108 0 107 320 250
c177 138 330 254 340 260 11 5 20 13 20 17 0 4 14 15 30 23 33 17 31 40 -2 29
-11 -3 -171 -3 -354 1 l-334 8 0 171 0 171 683 -2 c375 -1 695 -3 710 -3z
m119 -5 c5 -7 8 -7 8 1 0 7 19 10 53 8 28 -2 89 -3 134 -3 l82 0 1 -555 c0
-305 3 -562 6 -571 6 -13 -11 -15 -140 -14 l-146 1 0 28 c0 16 7 55 16 87 30
108 36 158 29 238 -3 44 -9 232 -13 417 -4 185 -9 339 -12 341 -11 11 0 -659
11 -700 15 -54 4 -182 -22 -280 -10 -40 -19 -86 -19 -103 0 -26 -4 -30 -26
-30 l-26 0 3 568 c1 312 4 570 6 574 5 10 47 5 55 -7z m1062 -554 c3 -310 5
-565 4 -566 -2 -1 -175 -5 -385 -8 l-383 -5 0 571 0 572 378 0 379 0 7 -564z
m147 -47 c3 -302 5 -550 5 -551 -1 -1 -30 5 -66 13 l-65 15 -3 472 c-1 260 -5
514 -8 564 l-6 93 69 -29 68 -28 6 -549z m-1289 139 l-4 -453 -165 0 -166 0 7
38 c4 20 9 53 12 72 10 69 35 225 40 253 4 18 1 27 -7 27 -7 0 -101 -88 -209
-195 l-196 -196 -138 3 -139 3 334 311 c184 171 401 375 484 452 82 78 149
140 150 139 1 -1 -1 -206 -3 -454z m-775 92 c-2 -6 -109 -11 -285 -13 -231 -2
-287 0 -314 12 -30 14 -3 15 284 13 207 -1 317 -6 315 -12z m457 -322 l-23
-136 -48 -43 -48 -43 -113 -1 -113 0 183 180 c101 98 183 179 184 180 0 0 -9
-61 -22 -137z m-31 -195 c-4 -22 -11 -28 -31 -28 l-26 0 29 30 c16 16 30 29
31 27 1 -1 0 -14 -3 -29z m1567 -267 c39 -10 138 -9 -1460 -20 -779 -6 -1106
-5 -1135 3 -30 8 186 12 860 16 495 3 1080 6 1300 8 220 1 416 -2 435 -7z"/>
<path d="M1607 1007 c-3 -293 -9 -542 -12 -552 -6 -18 -5 -18 5 -3 11 18 29
1088 18 1088 -3 0 -8 -240 -11 -533z"/>
<path d="M1701 1533 c-1 -7 8 -36 18 -65 51 -143 53 -161 47 -503 -4 -176 -8
-372 -10 -435 l-3 -115 7 105 c5 58 13 157 20 220 7 66 10 189 7 290 -3 125
-2 158 4 115 5 -33 13 -208 18 -388 5 -181 11 -331 13 -333 2 -2 2 247 0 554
-1 306 -5 559 -9 562 -3 3 -3 -105 -1 -239 2 -134 0 -233 -3 -220 -4 13 -7 40
-8 60 -1 20 -10 82 -21 138 -19 92 -19 104 -5 130 17 34 20 88 5 111 -7 11
-10 -1 -11 -40 0 -57 -17 -120 -18 -72 -1 12 -5 30 -10 40 -5 9 -16 35 -25 57
-8 22 -15 35 -15 28z"/>
<path d="M1863 1503 c-18 -38 -16 -204 3 -283 19 -81 32 -670 16 -745 -8 -35
-7 -44 1 -36 17 17 22 550 6 667 -6 49 -13 148 -15 219 -3 110 -2 125 9 98 7
-17 16 -35 20 -40 5 -4 3 6 -3 22 -7 17 -15 51 -19 77 -6 47 -6 47 -18 21z"/>
<path d="M1686 1420 c3 -58 9 -143 15 -190 5 -47 12 -190 15 -318 5 -197 3
-241 -10 -282 -9 -27 -16 -58 -16 -69 0 -11 -5 -30 -11 -43 -7 -17 -7 -32 3
-54 12 -30 13 -28 15 42 0 40 9 93 18 117 14 37 16 76 12 278 -3 129 -10 281
-17 339 -6 58 -15 146 -20 195 l-8 90 4 -105z"/>
<path d="M2213 1096 c-99 -119 -112 -140 -95 -148 4 -2 52 -56 106 -120 l98
-117 81 96 c45 53 94 110 109 128 l26 31 -104 125 c-58 68 -108 125 -112 126
-4 2 -53 -53 -109 -121z m155 44 l43 -50 -48 -60 c-45 -58 -50 -61 -83 -56
-19 3 -59 6 -88 6 l-53 0 65 75 c36 41 75 88 87 105 13 16 25 30 28 30 3 0 25
-22 49 -50z m101 -119 c23 -27 41 -51 41 -54 0 -9 -72 -92 -80 -92 -5 0 -27
21 -50 47 l-42 48 39 50 c21 27 41 49 45 50 3 0 25 -22 47 -49z m-100 -112
c49 -57 49 -61 -13 -131 l-33 -38 -79 93 c-43 50 -85 100 -93 110 -13 16 -8
17 80 17 l94 0 44 -51z"/>
<path d="M973 213 c-9 -15 -33 -47 -51 -70 -35 -44 -34 -57 2 -24 12 10 35 22
51 25 26 5 32 2 47 -24 9 -16 22 -30 28 -30 7 0 5 9 -4 22 -20 28 -20 38 -1
38 8 0 15 5 15 11 0 6 -8 8 -19 4 -15 -4 -20 1 -25 29 -9 47 -21 52 -43 19z
m30 -33 c4 -16 0 -20 -19 -20 -22 0 -23 3 -14 20 6 11 15 20 19 20 5 0 11 -9
14 -20z"/>
<path d="M2043 169 c-28 -38 -47 -69 -41 -69 5 0 17 9 26 19 10 11 33 23 52
26 32 6 36 4 47 -25 10 -27 16 -31 34 -25 13 4 30 16 38 26 21 24 91 37 91 17
0 -19 27 -55 35 -46 4 3 -1 18 -10 32 -16 24 -16 26 -1 26 9 0 16 5 16 11 0 6
-6 9 -14 6 -9 -4 -19 9 -31 36 -15 38 -18 40 -28 23 -7 -10 -32 -43 -56 -73
-44 -55 -44 -55 -57 -32 -10 20 -10 25 2 27 8 2 14 8 14 14 0 5 -6 8 -14 5
-10 -4 -18 5 -26 28 -6 19 -15 37 -18 39 -4 2 -31 -27 -59 -65z m67 4 c0 -7
-11 -13 -25 -13 -25 0 -25 0 -9 26 13 19 19 22 25 12 5 -7 9 -19 9 -25z m170
0 c0 -7 -11 -13 -25 -13 -25 0 -25 0 -9 26 13 19 19 22 25 12 5 -7 9 -19 9
-25z"/>
<path d="M430 165 c0 -84 14 -84 18 0 2 41 -1 65 -7 65 -7 0 -11 -26 -11 -65z"/>
<path d="M500 220 c0 -5 19 -10 42 -10 l41 0 -23 -25 c-13 -13 -38 -35 -56
-47 -37 -25 -45 -43 -15 -33 11 3 49 1 85 -6 52 -9 70 -8 81 1 17 14 20 40 5
40 -5 0 -10 -7 -10 -15 0 -16 -18 -18 -89 -7 l-44 7 52 48 c28 26 51 50 51 52
0 3 -27 5 -60 5 -33 0 -60 -4 -60 -10z"/>
<path d="M710 220 c0 -5 19 -10 43 -10 l42 -1 -52 -49 c-57 -52 -64 -65 -33
-55 10 3 47 1 80 -5 66 -12 90 -4 90 29 -1 14 -2 14 -14 -2 -12 -16 -23 -17
-76 -11 l-62 7 59 53 58 53 -67 1 c-39 0 -68 -4 -68 -10z"/>
<path d="M1090 171 c0 -33 5 -63 10 -66 6 -4 10 7 10 24 0 28 3 31 29 31 16 0
37 3 46 7 15 5 16 1 10 -25 -3 -17 -2 -39 4 -49 8 -14 10 -8 11 30 0 40 3 47
20 47 11 0 20 5 20 11 0 6 -7 9 -15 5 -11 -4 -15 1 -15 19 0 16 -6 25 -15 25
-11 0 -14 -7 -9 -25 6 -24 4 -25 -40 -25 -42 0 -46 2 -46 25 0 14 -4 25 -10
25 -6 0 -10 -26 -10 -59z"/>
<path d="M1330 159 c0 -44 4 -68 10 -64 6 3 10 24 10 46 l0 40 33 -25 c19 -15
39 -26 44 -26 6 0 13 -10 16 -22 9 -33 14 -20 22 55 4 45 3 67 -4 67 -6 0 -11
-19 -11 -45 0 -25 -3 -45 -8 -45 -17 0 -81 51 -87 70 -13 41 -25 18 -25 -51z"/>
<path d="M1834 223 c4 -5 13 -8 19 -8 7 0 13 -19 14 -48 3 -81 3 -82 91 -55
56 17 37 47 -31 49 l-32 1 33 14 c37 16 38 35 1 45 -34 10 -104 11 -95 2z
m101 -23 c3 -5 2 -10 -4 -10 -5 0 -16 -3 -24 -6 -8 -3 -17 2 -20 10 -5 12 0
16 18 16 13 0 27 -4 30 -10z m19 -59 c23 -9 14 -16 -31 -26 -29 -6 -33 -4 -33
14 0 22 26 27 64 12z"/>
<path d="M2364 207 c-8 -33 -1 -100 11 -104 6 -2 10 23 10 62 1 65 -9 86 -21
42z"/>
<path d="M2437 221 c-2 -3 -4 -35 -6 -70 -2 -42 1 -61 8 -56 6 3 11 24 11 47
l0 40 33 -24 c17 -13 40 -27 50 -31 9 -3 18 -14 18 -24 2 -30 17 39 18 85 0
23 -3 42 -9 42 -5 0 -10 -20 -10 -45 0 -27 -5 -45 -11 -45 -7 0 -31 20 -55 44
-25 24 -46 41 -47 37z"/>
<path d="M1512 163 c2 -31 8 -58 15 -60 6 -2 27 10 47 28 l36 31 0 -24 c0 -32
30 -60 50 -48 13 8 12 10 -3 10 -23 0 -40 46 -32 87 4 20 2 33 -5 33 -5 0 -10
-9 -10 -19 0 -10 -17 -34 -37 -52 l-38 -33 -3 52 c-2 29 -8 52 -13 52 -6 0 -9
-24 -7 -57z"/>
<path d="M1665 210 c-3 -5 1 -10 9 -10 12 0 16 -12 17 -52 1 -46 2 -49 8 -19
l6 35 36 -32 c36 -31 91 -44 103 -23 3 5 -10 9 -29 8 -24 -1 -43 6 -57 21
l-22 22 21 0 c51 0 71 29 34 50 -25 13 -118 13 -126 0z m125 -16 c25 -8 -9
-24 -52 -24 -34 0 -50 15 -33 32 5 5 60 0 85 -8z"/>
</g>
</svg>
