<?xml version="1.0" standalone="no"?>
<!DOCTYPE svg PUBLIC "-//W3C//DTD SVG 20010904//EN"
 "http://www.w3.org/TR/2001/REC-SVG-20010904/DTD/svg10.dtd">
<svg version="1.0" xmlns="http://www.w3.org/2000/svg"
 width="300.000000pt" height="284.000000pt" viewBox="0 0 300.000000 284.000000"
 preserveAspectRatio="xMidYMid meet">
<metadata>
Created by Zaid Izzah Nurbaain - logo created at July 2025
</metadata>
<g transform="translate(0.000000,284.000000) scale(0.100000,-0.100000)"
fill="#000000" stroke="none">
<path d="M1516 2682 c-962 -1 -1333 -5 -1343 -13 -10 -9 -13 -78 -13 -350 l0
-339 28 -11 c15 -6 51 -22 81 -35 88 -42 154 -47 613 -42 236 2 428 1 428 -2
0 -3 -8 -10 -17 -16 -17 -11 -582 -448 -832 -644 -32 -25 -73 -56 -91 -70 -18
-14 -56 -43 -84 -65 -77 -61 -119 -91 -138 -98 -16 -6 -18 -26 -18 -236 0
-138 4 -232 10 -236 5 -3 58 -23 117 -43 l108 -37 1230 8 c676 5 1230 9 1231
10 2 3 23 2222 21 2222 -1 0 -600 -1 -1331 -3z m1216 -89 c-155 -145 -603
-565 -771 -723 -103 -96 -243 -227 -311 -291 -506 -472 -640 -602 -640 -623
l0 -21 895 3 895 2 0 -190 0 -190 -1320 0 -1320 0 0 205 c0 113 3 205 8 205 4
0 37 24 73 53 36 28 81 63 99 77 18 14 59 45 91 70 31 25 89 70 129 100 39 30
80 62 90 70 10 8 51 40 90 70 40 30 98 75 129 100 32 25 73 56 91 70 18 14 59
45 91 70 31 25 101 79 154 120 54 41 112 87 130 103 20 16 39 25 49 21 11 -4
16 0 16 14 0 13 17 31 50 52 27 18 47 36 44 41 -3 5 -281 9 -655 9 l-649 0 0
320 0 320 1302 0 1302 0 -62 -57z m77 -788 c-4 -451 -8 -823 -8 -827 -1 -5
-139 -8 -307 -8 -252 0 -305 2 -301 13 3 8 8 39 12 71 4 31 11 59 16 62 5 3 7
9 4 14 -5 8 3 65 41 295 23 140 24 147 31 198 6 47 -2 58 -25 35 -7 -7 -12 -8
-12 -4 0 4 -158 -148 -351 -338 l-352 -346 -256 0 -256 1 75 71 c41 39 126
119 189 177 63 58 198 185 301 281 102 96 244 229 315 295 71 66 210 197 310
290 99 94 241 226 315 295 74 69 164 153 200 187 36 34 65 61 66 60 1 -1 -2
-371 -7 -822z m-1961 175 l577 0 -33 -26 -33 -26 -504 1 -504 1 -56 24 c-30
14 -55 28 -55 32 0 3 7 3 16 0 9 -3 275 -6 592 -6z m1411 -416 c-19 -110 -40
-239 -55 -339 -17 -110 -9 -98 -134 -207 l-55 -48 -209 0 -209 0 229 222 c126
123 276 271 334 330 57 59 106 106 107 104 1 -1 -2 -29 -8 -62z m-83 -521
c-13 -73 -13 -73 -68 -73 l-50 0 56 47 c31 26 56 51 56 55 0 4 3 8 6 8 3 0 3
-17 0 -37z m624 -531 c0 -18 -31 -19 -737 -25 -405 -4 -955 -7 -1223 -7 -467
0 -489 1 -551 21 -35 12 -66 23 -68 25 -2 2 577 4 1287 4 1247 0 1292 -1 1292
-18z"/>
<path d="M866 292 c-8 -16 -24 -40 -35 -53 -57 -68 -73 -90 -67 -96 4 -4 19 8
34 26 21 26 37 34 68 37 38 3 42 1 57 -31 9 -19 24 -35 33 -35 13 0 12 5 -5
29 -26 36 -26 37 2 46 21 8 21 8 -4 12 -21 3 -28 11 -33 38 -4 18 -13 38 -21
45 -11 9 -17 6 -29 -18z m34 -49 c0 -13 -38 -28 -47 -19 -3 3 2 17 12 32 13
21 19 24 26 13 5 -8 9 -19 9 -26z"/>
<path d="M1016 311 c-11 -18 -8 -153 4 -165 7 -7 10 4 10 37 l0 47 54 0 54 0
-1 -42 c-1 -24 3 -43 8 -43 11 0 12 4 14 58 1 33 4 37 26 37 14 0 25 5 25 11
0 7 -10 9 -25 5 -23 -6 -25 -3 -25 24 0 20 -5 30 -15 30 -11 0 -13 -8 -8 -30
l6 -30 -57 0 c-53 0 -57 2 -51 20 8 24 -9 58 -19 41z"/>
<path d="M1920 304 c0 -8 9 -14 20 -14 17 0 20 -7 21 -47 2 -104 0 -98 44 -95
87 8 140 54 78 67 -16 4 -39 8 -52 11 -23 5 -23 6 10 22 43 22 43 34 -1 48
-63 20 -120 24 -120 8z m110 -23 l25 -7 -32 -17 c-41 -22 -43 -22 -43 8 0 26
7 28 50 16z m45 -81 c19 -7 18 -8 -7 -18 -15 -6 -39 -12 -55 -14 -23 -2 -29 1
-31 20 -3 20 1 22 35 21 21 0 47 -4 58 -9z"/>
<path d="M2207 275 c-16 -25 -33 -45 -38 -45 -5 0 -9 -6 -9 -13 0 -8 -11 -24
-25 -37 -13 -12 -22 -28 -18 -33 4 -6 18 4 34 23 21 25 37 33 68 36 39 4 42 2
58 -31 13 -28 22 -35 41 -32 14 2 35 16 47 31 17 21 33 30 64 32 38 4 42 2 55
-31 8 -19 22 -35 30 -35 13 0 12 6 -5 34 l-20 34 23 7 c23 7 23 8 2 12 -15 3
-27 19 -39 49 -9 24 -20 44 -23 44 -4 0 -20 -20 -35 -45 -16 -25 -33 -45 -38
-45 -5 0 -9 -6 -9 -13 0 -7 -13 -26 -29 -41 l-29 -28 -15 28 c-14 28 -14 29
11 41 l27 11 -26 1 c-22 1 -29 9 -43 46 -10 25 -21 45 -24 45 -4 0 -20 -20
-35 -45z m43 -9 c0 -8 2 -21 5 -28 4 -9 -4 -14 -25 -16 -35 -3 -36 0 -14 33
18 28 34 33 34 11z m213 -16 c4 -15 -1 -22 -19 -26 -34 -9 -39 0 -19 30 19 28
30 27 38 -4z"/>
<path d="M196 288 c-10 -39 -7 -113 7 -131 10 -14 12 -3 14 68 1 81 -8 110
-21 63z"/>
<path d="M280 300 c0 -5 26 -10 57 -12 l58 -3 -70 -59 c-76 -64 -90 -82 -55
-71 12 4 60 1 107 -6 80 -12 86 -11 99 6 16 22 18 45 4 45 -5 0 -10 -7 -10
-15 0 -24 -25 -28 -96 -15 l-65 13 68 63 68 63 -82 1 c-46 0 -83 -4 -83 -10z"/>
<path d="M540 300 c0 -5 26 -10 57 -12 l58 -3 -70 -59 c-76 -64 -90 -82 -55
-71 12 4 60 1 107 -6 80 -12 86 -11 99 6 22 30 17 55 -5 26 -19 -24 -19 -24
-91 -12 l-72 13 69 64 68 63 -82 1 c-46 0 -83 -4 -83 -10z"/>
<path d="M1300 224 c0 -54 4 -83 10 -79 6 3 10 28 10 55 l0 49 51 -35 c28 -19
55 -34 60 -34 5 0 9 -9 9 -20 0 -11 4 -20 9 -20 4 0 11 28 15 61 8 85 8 109
-4 109 -5 0 -10 -19 -10 -42 0 -70 -12 -78 -62 -42 -24 16 -49 42 -56 57 -23
47 -32 30 -32 -59z"/>
<path d="M2577 304 c-10 -11 -8 -152 2 -158 5 -3 11 29 13 72 5 73 0 100 -15
86z"/>
<path d="M2656 258 c-9 -77 -7 -118 4 -118 6 0 10 25 10 55 0 30 4 55 8 55 5
0 19 -11 31 -24 13 -14 36 -30 51 -36 15 -6 31 -21 35 -33 6 -16 11 -4 19 48
12 72 11 105 -5 105 -5 0 -9 -25 -9 -55 0 -40 -4 -55 -14 -55 -19 0 -89 57
-104 86 -7 13 -14 24 -16 24 -2 0 -6 -24 -10 -52z"/>
<path d="M1527 293 c-9 -8 -9 -106 -1 -127 9 -24 26 -19 72 20 31 26 42 31 42
19 0 -29 30 -76 47 -73 9 2 18 9 21 16 2 7 -2 10 -12 6 -21 -8 -38 38 -34 91
4 48 -13 59 -25 16 -4 -17 -22 -41 -40 -54 -60 -45 -59 -45 -56 21 4 59 -1 79
-14 65z"/>
<path d="M1728 293 c-22 -5 -24 -23 -3 -23 12 0 15 -14 15 -66 0 -41 4 -63 10
-59 6 3 10 22 10 41 0 19 3 34 6 34 4 0 24 -16 45 -35 38 -34 75 -44 113 -29
30 12 16 22 -23 17 -26 -4 -46 0 -65 12 -35 23 -33 31 8 39 39 7 58 26 47 44
-15 25 -110 39 -163 25z m139 -27 c13 -13 -15 -27 -61 -31 -44 -4 -46 -3 -46
22 0 25 2 25 50 21 28 -3 53 -8 57 -12z"/>
</g>
</svg>
